<?xml version="1.0" encoding="UTF-8"?>
<svg width="52px" height="52px" viewBox="0 0 52 52" version="1.1" xmlns="http://www.w3.org/2000/svg" xmlns:xlink="http://www.w3.org/1999/xlink">
    <title>fen_ico_shop</title>
    <g id="页面-1" stroke="none" stroke-width="1" fill="none" fill-rule="evenodd">
        <g id="6-2我的分销" transform="translate(-434.000000, -737.000000)" fill-rule="nonzero">
            <g id="编组" transform="translate(30.000000, 697.000000)">
                <g id="shop_fill" transform="translate(404.000000, 40.000000)">
                    <g id="编组-4">
                        <rect id="矩形" fill="#000000" opacity="0" x="0" y="0" width="52" height="52"></rect>
                        <path d="M50.5168457,17.8798794 C50.5132403,17.8528388 50.5078321,17.8276009 50.502424,17.8059683 C50.4807915,17.7014111 50.4519481,17.6004594 50.4104858,17.503113 L46.1849329,6.98429858 C45.4548353,4.81022999 43.433997,3.46 40.8921756,3.46 L11.2321835,3.46 C8.7408379,3.46 6.80472707,4.78499205 6.10347277,6.87974138 L1.56064289,17.6130783 C1.53901037,17.6761732 1.51557514,17.7699141 1.49574532,17.8654578 C1.16584934,18.8785809 1,19.9187448 1,20.962514 C1.00360542,24.6346348 3.0190355,27.9876759 6.25490044,29.7092642 C7.58710333,30.4231375 9.15726397,30.7836796 10.9203146,30.7836796 L10.9257227,30.7836796 C13.8839703,30.7764687 16.6240899,29.4767146 18.4916977,27.2521701 C20.350292,29.4568848 23.0687791,30.7494281 26.0216185,30.7674552 C28.9510227,30.7458226 31.6604963,29.4478712 33.5118797,27.2431566 C35.3794876,29.4677011 38.1232126,30.7638497 41.0958818,30.7638497 C42.8949867,30.7530335 44.492188,30.376267 45.8370098,29.6371558 C49.0242016,27.8975404 51.0017748,24.5571183 50.9999861,20.9246571 C51.0017748,19.8790851 50.8305173,18.8335132 50.5168457,17.8798794 L50.5168457,17.8798794 Z M40.0160584,19.637522 L11.1708913,19.637522 C10.1757953,19.637522 9.36818107,18.8299078 9.36818107,17.8348117 C9.36818107,16.8397156 10.1757953,16.0321014 11.1708913,16.0321014 L40.0160584,16.0321014 C41.0129571,16.0321014 41.8187686,16.8397156 41.8187686,17.8348117 C41.8187686,18.8299078 41.0129571,19.637522 40.0160584,19.637522 Z M47.2629537,34.0610068 C47.2629537,33.0641081 46.4571422,32.2582966 45.4602434,32.2582966 C45.2745642,32.2582966 45.1069122,32.3105752 44.9392601,32.3646565 C43.6034518,32.8928506 41.8944825,33.1776788 40.6055446,33.1073731 C37.7644732,32.9559454 35.5994182,32.3898944 33.5136824,30.6142248 C31.45679,32.3682619 28.8320439,33.3669634 26.0378429,33.3922013 C23.2039824,33.3741742 20.5648146,32.6639064 18.4971059,30.9062639 C16.4167782,32.6801308 13.761386,33.543629 10.9329336,33.543629 L10.9221173,33.543629 C9.19512089,33.543629 8.22165734,33.2155357 6.64969399,32.635063 C6.60642894,32.6134305 6.56136118,32.6026142 6.51629343,32.5863898 C6.44057959,32.5575465 6.38289287,32.5377167 6.30537632,32.5088733 C6.30537632,32.5088733 6.04578605,32.4638055 5.90337193,32.4638055 L5.89976651,32.4638055 C4.90467044,32.4638055 4.09885895,33.2732224 4.10065865,34.2701212 L4.11328064,43.9308456 C4.11328064,46.472667 6.18459474,48.5403757 8.73182435,48.5403757 L42.6552262,48.5187432 C45.1988504,48.5115324 47.2683618,46.4384155 47.2683618,43.8965941 L47.2629537,34.0610068 Z" id="形状" fill="#447FFF"></path>
                    </g>
                </g>
            </g>
        </g>
    </g>
</svg>