<?xml version="1.0" encoding="UTF-8"?>
<svg width="52px" height="52px" viewBox="0 0 52 52" version="1.1" xmlns="http://www.w3.org/2000/svg" xmlns:xlink="http://www.w3.org/1999/xlink">
    <title>fen_ico_ti</title>
    <g id="页面-1" stroke="none" stroke-width="1" fill="none" fill-rule="evenodd">
        <g id="6-2我的分销" transform="translate(-264.000000, -737.000000)" fill-rule="nonzero">
            <g id="编组" transform="translate(30.000000, 697.000000)">
                <g id="提现记录" transform="translate(234.000000, 40.000000)">
                    <g id="编组-3">
                        <rect id="矩形" fill="#000000" opacity="0" x="0" y="0" width="52" height="52"></rect>
                        <path d="M28.3811341,10.2349899 L28.3811341,21.2384242 C28.3811341,22.5535696 27.3149981,23.6197055 25.9998528,23.6197055 C24.6847074,23.6197055 23.6185714,22.5535696 23.6185714,21.2384242 L23.6185714,9.99419729 L19.1461442,14.4685983 C18.5446608,15.0700816 17.6679798,15.3049876 16.8463382,15.0848294 C16.0246967,14.8646712 15.3829216,14.2228961 15.1627635,13.4012546 C14.9426053,12.5796131 15.1775113,11.702932 15.7789946,11.1014487 L25.8804433,1 L35.981892,11.1014487 C36.5833753,11.702932 36.8182813,12.5796131 36.5981231,13.4012546 C36.377965,14.2228961 35.7361899,14.8646712 34.9145484,15.0848294 C34.0929068,15.3049876 33.2162258,15.0700816 32.6147424,14.4685983 L28.3811341,10.2349899 L28.3811341,10.2349899 Z M30.7614286,17.6660088 L47.429411,17.6660088 C48.743902,17.6660088 49.8097055,18.7318123 49.8097055,20.0463032 L49.8097055,27.1911341 L2.19,27.1911341 L2.19,20.0463032 C2.19,18.7318123 3.2558035,17.6660088 4.57029448,17.6660088 L21.238277,17.6660088 L21.238277,21.2384242 C21.2031702,22.9626801 22.102965,24.5711968 23.590638,25.4436186 C25.0783111,26.3160405 26.9213945,26.3160405 28.4090675,25.4436186 C29.8967406,24.5711968 30.7965353,22.9626801 30.7614286,21.2384242 L30.7614286,17.6660088 L30.7614286,17.6660088 Z M49.8097055,31.951723 L49.8097055,48.6197055 C49.8097055,49.9341965 48.743902,51 47.429411,51 L4.57029448,51 C3.2558035,51 2.19,49.9341965 2.19,48.6197055 L2.19,31.951723 L49.8097055,31.951723 Z M6.95256267,40.2847274 L20.0481297,40.2847274 L20.0481297,35.5261122 L6.95256267,35.5261122 L6.95256267,40.2867011 L6.95256267,40.2847274 Z" id="形状" fill="#447FFF"></path>
                    </g>
                </g>
            </g>
        </g>
    </g>
</svg>