<?xml version="1.0" encoding="UTF-8"?>
<svg width="52px" height="52px" viewBox="0 0 52 52" version="1.1" xmlns="http://www.w3.org/2000/svg" xmlns:xlink="http://www.w3.org/1999/xlink">
    <title>fen_ico_ren</title>
    <g id="页面-1" stroke="none" stroke-width="1" fill="none" fill-rule="evenodd">
        <g id="6-2我的分销" transform="translate(-604.000000, -737.000000)" fill-rule="nonzero">
            <g id="编组" transform="translate(30.000000, 697.000000)">
                <g id="分销订单" transform="translate(574.000000, 40.000051)">
                    <g id="编组-5">
                        <rect id="矩形" fill="#000000" opacity="0" x="-3.55271368e-15" y="1.52766688e-13" width="52" height="51.9999492"></rect>
                        <path d="M15.2929102,7.52172019 C15.2929102,8.14281334 15.9140527,8.76395531 16.5351465,8.76395531 L35.1686914,8.76395531 C35.7897852,8.76395531 36.4109277,8.14286217 36.4109277,7.52176902 L36.4109277,2.24218433 C36.4109277,1.62109119 35.789834,0.999949219 35.1687402,0.999949219 L16.5351465,0.999949219 C15.9140527,0.999949219 15.2929102,1.62104236 15.2929102,2.24218433 L15.2929102,7.52167137 L15.2929102,7.52172019 Z M46.780459,5.34779654 C48.0226953,5.34779654 49.4543848,6.7794851 49.4543848,8.02172022 L49.4543848,48.3260252 C49.4543848,50.1894023 48.0227443,50.9999492 47.091006,50.9999492 L5.23,50.9999492 C3.9878125,50.9999492 2.56,49.5683092 2.56,48.3260252 L2.56,8.02172022 C2.56,6.77953393 3.98776367,5.34779654 5.23,5.34779654 L12.4979395,5.34779654 L12.4979395,9.58509722 C12.4979395,10.5167369 13.4296289,11.4484252 14.3613184,11.4484252 L37.6532129,11.4484252 C38.5849023,11.4484252 39.5165918,10.8273323 39.5165918,9.58509722 L39.5165918,5.34779654 L46.780459,5.34779654 Z M20.2619043,15.9068194 L14.6717676,21.1863065 C14.0506738,21.8073996 14.0506738,22.7390881 14.6717676,23.3602301 L20.2618555,28.6397171 C20.5724023,28.9502637 20.8829492,29.2608103 21.504043,29.2608103 C21.8145898,29.2608103 22.4357324,28.9502637 22.7463281,28.6397171 C23.3674219,28.018624 23.3674219,27.0869355 22.7463281,26.4657935 L19.6407129,23.9813233 L35.7897852,23.9813233 C36.7214258,23.9813233 37.3425684,23.3602301 37.3425684,22.4285904 C37.3425684,21.4969507 36.4109277,20.8757599 35.7897852,20.8757599 L19.6407617,20.8757599 L22.4357813,18.0807431 C23.056875,17.4596499 23.056875,16.5279126 22.7463281,15.9068194 C21.8146875,15.2857263 20.882998,15.2857263 20.2619043,15.9068194 L20.2619043,15.9068194 Z M31.1314355,41.6831614 L37.0321191,36.0931767 C37.342666,35.7826301 37.342666,35.4720835 37.6532129,34.8509904 C37.6532129,34.540395 37.342666,33.919253 37.0321191,33.6087064 L31.4419824,28.3291706 C30.8208887,27.7080774 29.889248,27.7080774 29.2681055,28.3291706 C28.336416,28.9502637 28.6470117,30.1924988 29.2681055,30.8136408 L32.063125,33.6086576 L15.9140527,33.6086576 C14.9824121,33.6086576 14.3612695,34.2297508 14.3612695,35.1614393 C14.3612695,36.0931278 15.2929102,36.7142698 15.9140527,36.7142698 L32.063125,36.7142698 L28.9575098,39.5092866 C28.336416,40.1303798 28.336416,41.0620683 28.9575098,41.6832103 C29.2680566,41.9937568 29.5786523,42.3043034 30.1997461,42.3043034 C30.510293,42.3043034 30.8208887,41.9937568 31.1314355,41.6832103 L31.1314355,41.6831614 Z" id="形状" fill="#447FFF"></path>
                    </g>
                </g>
            </g>
        </g>
    </g>
</svg>