<?xml version="1.0" encoding="UTF-8"?>
<svg width="52px" height="52px" viewBox="0 0 52 52" version="1.1" xmlns="http://www.w3.org/2000/svg" xmlns:xlink="http://www.w3.org/1999/xlink">
    <title>fen_ico_team</title>
    <g id="页面-1" stroke="none" stroke-width="1" fill="none" fill-rule="evenodd">
        <g id="6-2我的分销" transform="translate(-94.000000, -921.000000)" fill-rule="nonzero">
            <g id="编组" transform="translate(30.000000, 697.000000)">
                <g id="团队" transform="translate(64.000000, 224.000000)">
                    <g id="编组-6">
                        <rect id="矩形" fill="#000000" opacity="0" x="3.01980663e-13" y="0" width="51.9818774" height="52"></rect>
                        <path d="M52,38.1579223 C52,40.7579223 50.9603625,41.2779223 46.9750683,41.2779223 C45.9354307,31.2246059 40.910499,26.3712895 35.7123112,23.9446059 C39.1777867,19.2646059 39.3510427,12.5046059 36.058874,7.47792227 C40.0441682,6.26460587 44.2027184,9.03792227 45.2423559,13.3712895 C46.1086867,17.1846059 44.3759744,21.3446059 40.910499,22.9046059 C47.494887,24.6379223 52,30.8779223 52,38.1579223 Z M30.6874303,24.8112895 C37.0985116,26.1979223 44.5492304,30.7046059 44.5492304,43.7046059 C44.5492304,47.1712895 40.2174242,47.1712895 26.1823173,47.1712895 C11.9739544,47.1712895 7.8154042,47.1712895 7.8154042,43.7046059 C7.8154042,30.8779223 15.266123,26.1979223 21.6772043,24.8112895 C16.6523234,22.0379223 14.9195603,15.6246059 17.3454489,10.4246059 C19.7713375,5.22460587 25.8358053,3.31792227 30.5141743,6.09128946 C35.1925432,8.86465665 37.0985623,15.2779223 34.4994684,20.3046059 C33.6330869,22.3846059 32.2469373,23.7712895 30.687481,24.8112895 L30.6874303,24.8112895 Z M16.3057606,23.9446059 C11.1075728,26.3712895 6.08264111,31.3979223 5.04300356,41.2779223 C1.05776014,41.2779223 0.0181225881,40.7579223 0.0181225881,38.1579223 C-0.328440182,30.8779223 4.34992878,24.4646059 10.9343168,22.9046059 C7.12227866,20.9979223 5.38956633,16.3179223 7.12227866,12.1579223 C8.68173498,8.51792227 12.3204664,6.61128946 15.9591978,7.65128946 C12.6670292,12.5046059 12.8402852,19.0912895 16.3057606,23.9446059 L16.3057606,23.9446059 Z" id="形状" fill="#447FFF"></path>
                    </g>
                </g>
            </g>
        </g>
    </g>
</svg>