<?xml version="1.0" encoding="UTF-8"?>
<svg width="32px" height="29px" viewBox="0 0 32 29" version="1.1" xmlns="http://www.w3.org/2000/svg" xmlns:xlink="http://www.w3.org/1999/xlink">
    <title>ico_di</title>
    <g id="页面-1" stroke="none" stroke-width="1" fill="none" fill-rule="evenodd">
        <g id="5-4确认订单" transform="translate(-60.000000, -244.000000)" fill="#447FFF" fill-rule="nonzero">
            <g id="编组-4" transform="translate(30.000000, 206.000000)">
                <g id="形状结合-2" transform="translate(30.000000, 38.000000)">
                    <path d="M6.87290393,18.8676496 C8.4049522,20.6972398 12.08588,24.6373221 15.9022097,25.3259043 C19.422661,24.7765301 23.0233506,21.4280816 25.2900799,18.9099091 C29.3496317,19.9191668 32,21.5697754 32,23.4366535 C32,26.509172 24.8362326,29 16,29 C7.16376743,29 0,26.509172 0,23.4366535 C0,21.542431 2.72057671,19.8719355 6.87290393,18.8676496 Z M16.0025074,0 C21.325811,0 25.6411221,4.27815875 25.6411221,9.55563175 C25.5734211,18.0522887 17.8680458,22.9220813 15.9348065,23.0115721 C14.2598339,23.3123607 6.26359505,17.3637065 6.36389281,9.55563175 C6.36389281,4.27815875 10.6792039,0 16.0025074,0 Z M16,4.28561632 C12.843128,4.28561632 10.272998,6.83113321 10.272998,9.96331219 C10.272998,13.0954912 12.843128,15.6410081 16,15.6410081 C19.156872,15.6410081 21.727002,13.0930053 21.727002,9.96331219 C21.727002,6.83361906 19.1593794,4.28561632 16,4.28561632 Z M14.3714151,7.16680577 C15.3791869,6.5899777 16.6208131,6.5899777 17.6285849,7.16680577 C18.6363567,7.74363384 19.2571697,8.80965607 19.2571697,9.96331219 C19.2571697,11.74671 17.7988852,13.1924396 16,13.1924396 C14.2011148,13.1924396 12.7428303,11.74671 12.7428303,9.96331219 C12.7428303,8.80965607 13.3636433,7.74363384 14.3714151,7.16680577 Z" id="形状结合"></path>
                </g>
            </g>
        </g>
    </g>
</svg>