<?xml version="1.0" encoding="UTF-8"?>
<svg width="18px" height="18px" viewBox="0 0 18 18" version="1.1" xmlns="http://www.w3.org/2000/svg" xmlns:xlink="http://www.w3.org/1999/xlink">
    <title>ico_sel</title>
    <g id="页面-1" stroke="none" stroke-width="1" fill="none" fill-rule="evenodd">
        <g id="5-4确认订单" transform="translate(-350.000000, -908.000000)" fill-rule="nonzero">
            <g id="认养" transform="translate(30.000000, 660.000000)">
                <g id="对号" transform="translate(320.000000, 248.000000)">
                    <g id="编组">
                        <rect id="矩形" fill="#000000" opacity="0" x="0" y="0" width="18" height="18"></rect>
                        <path d="M5.95293005,15.0093255 C5.6488964,14.9998902 5.36036514,14.872934 5.14800592,14.6551519 L0.342693418,9.87398355 C-0.114231139,9.4000576 -0.114231139,8.64953985 0.342693418,8.17561389 C0.566324467,7.95048964 0.870530865,7.82388986 1.18785054,7.82388986 C1.50517022,7.82388986 1.80937662,7.95048964 2.03300767,8.17561389 L5.95293005,12.1196805 L15.9659951,3.35419058 C16.1871551,3.12751331 16.4904428,2.99969315 16.8071355,2.99969315 C17.1238283,2.99969315 17.427116,3.12751331 17.648276,3.35419058 C17.8734002,3.57782163 18,3.88202803 18,4.19934771 C18,4.51666738 17.8734002,4.82087378 17.648276,5.04450483 L6.79808717,14.6551519 C6.57435501,14.8804265 6.27042397,15.0077926 5.95293005,15.0093255 L5.95293005,15.0093255 Z" id="路径" fill="#FFFFFF"></path>
                    </g>
                </g>
            </g>
        </g>
    </g>
</svg>