<?xml version="1.0" encoding="UTF-8"?>
<svg width="110px" height="110px" viewBox="0 0 110 110" version="1.1" xmlns="http://www.w3.org/2000/svg" xmlns:xlink="http://www.w3.org/1999/xlink">
    <title>ico_quan</title>
    <g id="页面-1" stroke="none" stroke-width="1" fill="none" fill-rule="evenodd">
        <g id="3-1我的" transform="translate(-90.000000, -841.000000)">
            <g id="编组-2" transform="translate(30.000000, 723.000000)">
                <g id="编组-4" transform="translate(60.000000, 118.000000)">
                    <g id="编组-3">
                        <circle id="椭圆形" fill="#E8EFFC" cx="55" cy="55" r="55"></circle>
                        <g id="订单" transform="translate(25.000000, 25.000000)" fill-rule="nonzero">
                            <rect id="矩形" fill="#000000" opacity="0" x="0" y="0" width="60" height="60"></rect>
                            <path d="M50.5065295,5.37723614 L42.3227191,5.37723614 C41.538059,2.84168157 39.1711091,1 36.3761628,1 L23.7567531,1 C20.9618068,1 18.5948569,2.84168157 17.8101968,5.37723614 L9.50966011,5.37723614 C7.07137746,5.37723614 5.1,7.3486136 5.1,9.78689624 L5.1,54.5903399 C5.1,57.0286225 7.07137746,59 9.50966011,59 L50.5000447,59 C52.9383274,59 54.9097207,57.0286225 54.9097207,54.5903399 L54.9097207,9.78689624 C54.9161896,7.35509839 52.9383274,5.37723614 50.5065295,5.37723614 Z M30.066458,43.8255814 C30.066458,44.9669052 29.1391324,45.8942308 27.9978086,45.8942308 L17.6869857,45.8942308 C16.5456619,45.8942308 15.6183363,44.9669052 15.6183363,43.8255814 C15.6183363,42.6842576 16.5456619,41.756932 17.6869857,41.756932 L27.9978086,41.756932 C29.1391324,41.756932 30.066458,42.6842576 30.066458,43.8255814 Z M44.6183363,32.2891324 C44.6183363,33.4304562 43.6910107,34.3577818 42.5496869,34.3577818 L17.583229,34.3577818 C16.4419052,34.3577818 15.5145796,33.4304562 15.5145796,32.2891324 C15.5145796,31.1478086 16.4419052,30.220483 17.583229,30.220483 L42.5561717,30.220483 C43.6974955,30.220483 44.6183363,31.1478086 44.6183363,32.2891324 Z M44.6183363,20.7526834 C44.6183363,21.8940072 43.6910107,22.8213327 42.5496869,22.8213327 L17.583229,22.8213327 C16.4419052,22.8213327 15.5145796,21.8940072 15.5145796,20.7526834 C15.5145796,19.6113596 16.4419052,18.684034 17.583229,18.684034 L42.5561717,18.684034 C43.6974955,18.684034 44.6183363,19.6113596 44.6183363,20.7526834 Z" id="形状" fill="#447FFF"></path>
                        </g>
                    </g>
                </g>
            </g>
        </g>
    </g>
</svg>