<?xml version="1.0" encoding="UTF-8"?>
<svg width="34px" height="34px" viewBox="0 0 34 34" version="1.1" xmlns="http://www.w3.org/2000/svg" xmlns:xlink="http://www.w3.org/1999/xlink">
    <title>login_ico_ver</title>
    <g id="页面-1" stroke="none" stroke-width="1" fill="none" fill-rule="evenodd">
        <g id="4-2注册" transform="translate(-120.000000, -848.000000)" fill-rule="nonzero">
            <g id="003_验证码-51" transform="translate(120.000000, 848.000000)">
                <g id="编组-8">
                    <rect id="矩形" fill="#000000" opacity="0" x="0" y="0" width="34" height="34"></rect>
                    <path d="M31.6842235,21.7845364 C32.376389,21.7845364 32.9375,22.3456474 32.9375,23.0378129 L32.9375,23.0378129 L32.9375,25.7787287 C32.9375,29.0080046 30.3102146,31.63529 27.080521,31.63529 L27.080521,31.63529 L6.91947903,31.63529 C3.68978539,31.63529 1.0625,29.0080046 1.0625,25.7787287 L1.0625,25.7787287 L1.0625,23.0378129 C1.0625,22.3456474 1.62361102,21.7845364 2.31577654,21.7845364 C3.00794206,21.7845364 3.56905308,22.3456474 3.56905308,23.0378129 L3.56905308,23.0378129 L3.56905308,25.7787287 C3.57135528,27.6280958 5.0701117,29.1266653 6.91947903,29.1287369 L6.91947903,29.1287369 L27.080521,29.1287369 C28.9298883,29.1266653 30.4286447,27.6280958 30.4309469,25.7787287 L30.4309469,25.7787287 L30.4309469,23.0378129 C30.4309469,22.3456474 30.9920579,21.7845364 31.6842235,21.7845364 Z M6.28448558,15.1003948 C7.39195042,15.1003948 8.28972805,15.9981725 8.28972805,17.1056373 C8.28972805,18.2131021 7.39195042,19.1108798 6.28448558,19.1108798 C5.17702075,19.1108798 4.27924312,18.2131021 4.27924312,17.1056373 C4.27924312,15.9981725 5.17702075,15.1003948 6.28448558,15.1003948 Z M13.4699377,15.1003948 C14.5774026,15.1003948 15.4751802,15.9981725 15.4751802,17.1056373 C15.4751802,18.2131021 14.5774026,19.1108798 13.4699377,19.1108798 C12.3624729,19.1108798 11.4646953,18.2131021 11.4646953,17.1056373 C11.4646953,15.9981725 12.3624729,15.1003948 13.4699377,15.1003948 Z M20.6553899,15.1003948 C21.7628547,15.1003948 22.6606324,15.9981725 22.6606324,17.1056373 C22.6606324,18.2131021 21.7628547,19.1108798 20.6553899,19.1108798 C19.5479251,19.1108798 18.6501474,18.2131021 18.6501474,17.1056373 C18.6501474,15.9981725 19.5479251,15.1003948 20.6553899,15.1003948 Z M27.8408421,15.1003948 C28.9483069,15.1003948 29.8460845,15.9981725 29.8460845,17.1056373 C29.8460845,18.2131021 28.9483069,19.1108798 27.8408421,19.1108798 C26.7333772,19.1108798 25.8355996,18.2131021 25.8355996,17.1056373 C25.8355996,15.9981725 26.7333772,15.1003948 27.8408421,15.1003948 Z M27.080521,2.35875 C30.3102146,2.35875 32.9375,4.98603539 32.9375,8.21572903 L32.9375,8.21572903 L32.9375,10.9562271 C32.9375,11.6483926 32.376389,12.2095036 31.6842235,12.2095036 C30.9920579,12.2095036 30.4309469,11.6483926 30.4309469,10.9562271 L30.4309469,10.9562271 L30.4309469,8.21572903 C30.4288749,6.36619882 28.9300512,4.86737513 27.080521,4.86530308 L27.080521,4.86530308 L6.91947903,4.86530308 C5.06994882,4.86737513 3.57112513,6.36619882 3.56905308,8.21572903 L3.56905308,8.21572903 L3.56905308,10.9562271 C3.56905308,11.6483926 3.00794206,12.2095036 2.31577654,12.2095036 C1.62361102,12.2095036 1.0625,11.6483926 1.0625,10.9562271 L1.0625,10.9562271 L1.0625,8.21572903 C1.0625,4.98603539 3.68978539,2.35875 6.91947903,2.35875 L6.91947903,2.35875 Z" id="形状结合" fill="#666666"></path>
                </g>
            </g>
        </g>
    </g>
</svg>