<?xml version="1.0" encoding="UTF-8"?>
<svg width="34px" height="34px" viewBox="0 0 34 34" version="1.1" xmlns="http://www.w3.org/2000/svg" xmlns:xlink="http://www.w3.org/1999/xlink">
    <title>login_ico_cip</title>
    <g id="页面-1" stroke="none" stroke-width="1" fill="none" fill-rule="evenodd">
        <g id="4-2注册" transform="translate(-120.000000, -700.000000)" fill-rule="nonzero">
            <g id="密码" transform="translate(120.000000, 700.000000)">
                <g id="编组-7">
                    <rect id="矩形" fill="#000000" opacity="0" x="0" y="0" width="34" height="34"></rect>
                    <path d="M26.1720313,12.0705312 L25.5313438,12.0705312 L25.5313438,9.59703126 C25.5313438,4.89068748 21.7031563,1.0625 16.9984063,1.0625 C12.2936562,1.0625 8.463875,4.89068748 8.463875,9.59703126 L8.463875,12.0705312 L7.82478126,12.0705312 C5.4288208,12.0740442 3.48763326,14.0159447 3.485,16.4119062 L3.485,28.5993125 C3.485,30.9899375 5.43256249,32.9375 7.82478126,32.9375 L26.1720313,32.9375 C28.5673705,32.9339891 30.5083016,30.993058 30.5118125,28.5977188 L30.5118125,16.4103125 C30.5091775,14.0146098 28.5677339,12.0731663 26.1720313,12.0705312 L26.1720313,12.0705312 Z M10.8545,9.59703126 C10.8545,6.20871873 13.6100938,3.45312497 16.9984063,3.45312497 C20.3867188,3.45312497 23.1407188,6.20871873 23.1407188,9.59703126 L23.1407188,12.0705312 L10.8545,12.0705312 L10.8545,9.59703126 Z M28.1211875,28.5977188 C28.1211875,29.6719063 27.2462187,30.546875 26.1720313,30.546875 L7.82478126,30.546875 C6.74901974,30.5451201 5.87737993,29.6734803 5.87562501,28.5977188 L5.87562501,16.4103125 C5.87562501,15.3345312 6.75059377,14.4595625 7.82478126,14.4595625 L26.1720313,14.4595625 C27.2462187,14.4595625 28.1211875,15.3345312 28.1211875,16.4103125 L28.1211875,28.5977188 L28.1211875,28.5977188 Z M18.9969688,21.226625 C18.9969688,21.8083437 18.7387812,22.3215312 18.3419375,22.6865 L18.3419375,24.3726875 C18.3419375,25.1146993 17.7404181,25.7162188 16.9984063,25.7162188 C16.2563944,25.7162188 15.654875,25.1146993 15.654875,24.3726875 L15.654875,22.6865 C15.2399907,22.3143418 15.0020152,21.7839634 14.9998438,21.226625 C14.9998438,20.5126074 15.3807676,19.8528279 15.999125,19.495819 C16.6174824,19.1388102 17.3793301,19.1388102 17.9976875,19.495819 C18.6160449,19.8528279 18.9969688,20.5126074 18.9969688,21.226625 L18.9969688,21.226625 Z" id="形状" fill="#666666"></path>
                </g>
            </g>
        </g>
    </g>
</svg>