<?xml version="1.0" encoding="UTF-8"?>
<svg width="48px" height="48px" viewBox="0 0 48 48" version="1.1" xmlns="http://www.w3.org/2000/svg" xmlns:xlink="http://www.w3.org/1999/xlink">
    <title>pes_ico_shou</title>
    <g id="页面-1" stroke="none" stroke-width="1" fill="none" fill-rule="evenodd">
        <g id="6-1我的" transform="translate(-600.000000, -1175.000000)" fill-rule="nonzero">
            <g id="编组-2" transform="translate(30.000000, 1057.000000)">
                <g id="deliver_fill" transform="translate(570.000000, 118.000000)">
                    <g id="编组-6">
                        <rect id="矩形" fill="#000000" opacity="0" x="0" y="0" width="48" height="48"></rect>
                        <path d="M14.6903915,34.247516 C17.9923074,34.247516 20.6690391,36.9242478 20.6690391,40.2261637 C20.6690391,43.5280796 17.9923074,46.2048114 14.6903915,46.2048114 C11.3884755,46.2048114 8.71174377,43.5280796 8.71174377,40.2261637 C8.71174377,36.9242478 11.3884755,34.247516 14.6903915,34.247516 Z M35.0177936,34.247516 C38.3197095,34.247516 40.9964413,36.9242478 40.9964413,40.2261637 C40.9964413,43.5280796 38.3197095,46.2048114 35.0177936,46.2048114 C31.7158777,46.2048114 29.0391459,43.5280796 29.0391459,40.2261637 C29.0391459,36.9242478 31.7158777,34.247516 35.0177936,34.247516 Z M42.7046263,1.792 C45.6085409,1.792 47.8291815,4.18345907 48,6.91655516 L48,6.91655516 L48,39.5428897 C48,40.5678007 47.316726,41.2510747 46.2918149,41.2510747 L46.2918149,41.2510747 L42.7046263,41.2510747 L42.7046263,40.3969822 C42.7046263,36.1265196 39.2882562,32.7101495 35.0177936,32.7101495 C30.747331,32.7101495 27.3309609,36.1265196 27.3309609,40.3969822 L27.3309609,40.3969822 L27.3309609,41.2510747 L22.0355872,41.2510747 C22.2064057,40.9094377 22.2064057,40.7386192 22.2064057,40.3969822 C22.2064057,36.1265196 18.7900356,32.7101495 14.519573,32.7101495 C10.2491103,32.7101495 6.83274021,36.1265196 6.83274021,40.3969822 C6.83274021,40.7386192 7.00355872,40.9094377 7.00355872,41.2510747 L7.00355872,41.2510747 L1.70818505,41.2510747 C1.19572954,41.2510747 0.854092527,41.0802562 0.512455516,40.7386192 C0.170818505,40.3969822 0,40.0553452 0,39.5428897 L0,39.5428897 L0,22.2902206 C0,19.7279431 1.02491103,17.678121 2.90391459,16.311573 C2.90391459,16.1407544 3.0747331,16.1407544 3.0747331,16.1407544 L3.0747331,16.1407544 L13.6654804,10.8453808 L13.6654804,6.06246263 C13.6654804,3.67100356 15.7153025,1.792 17.9359431,1.792 L17.9359431,1.792 Z M12.9822064,15.7991174 C12.4697509,15.4574804 11.9572954,15.2866619 11.2740214,15.6282989 C9.05338078,16.4823915 3.41637011,18.8738505 3.41637011,22.2902206 C3.41637011,23.3151317 4.09964413,23.9984057 5.12455516,23.9984057 L5.12455516,23.9984057 L11.9572954,23.9984057 C12.9822064,23.9984057 13.6654804,23.3151317 13.6654804,22.2902206 L13.6654804,22.2902206 L13.6654804,17.1656655 C13.6654804,16.65321 13.4946619,16.1407544 12.9822064,15.7991174 Z" id="形状结合" fill="#808080"></path>
                    </g>
                </g>
            </g>
        </g>
    </g>
</svg>