<?xml version="1.0" encoding="UTF-8"?>
<svg width="48px" height="48px" viewBox="0 0 48 48" version="1.1" xmlns="http://www.w3.org/2000/svg" xmlns:xlink="http://www.w3.org/1999/xlink">
    <title>pes_ico_pei</title>
    <g id="页面-1" stroke="none" stroke-width="1" fill="none" fill-rule="evenodd">
        <g id="6-1我的" transform="translate(-434.000000, -1175.000000)" fill-rule="nonzero">
            <g id="编组-2" transform="translate(30.000000, 1057.000000)">
                <g id="待配送" transform="translate(404.000000, 118.000000)">
                    <g id="编组-5">
                        <rect id="矩形" fill="#000000" opacity="0" x="0" y="0" width="48" height="48"></rect>
                        <path d="M45.8942481,11.9421462 L40.3943287,2.68266652 C40.080371,2.17460602 39.6524075,1.74664253 39.144347,1.43268484 C38.6224016,1.10539762 38.0200307,0.92901278 37.4039879,0.923076923 L10.5966885,0.923076923 C9.98641163,0.949494909 9.39062266,1.11736915 8.85632938,1.41345435 C8.34311644,1.71357921 7.9261674,2.1538774 7.65442392,2.68266652 L2.01027587,11.9421462 C1.31554865,13.1446085 0.941414568,14.5053971 0.923753334,15.8940114 L0.923753334,43.576298 C0.90463902,44.49709 1.29143834,45.3796957 1.98143014,45.9897241 C2.64276191,46.627323 3.507319,47.0119488 4.42370204,47.0762467 L43.5769744,47.0762467 C44.4977664,47.095361 45.3803721,46.7085617 45.9904005,46.0185699 C46.6279995,45.3572381 47.0126252,44.492681 47.0769231,43.576298 L47.0769231,15.8940114 C47.0720257,14.490238 46.6613045,13.1178282 45.8942481,11.9421462 Z M19.0773334,5.48070244 L28.6925771,5.48070244 C29.7546476,5.48070244 30.6156259,6.34168068 30.6156259,7.40375117 C30.6156259,8.46582167 29.7546476,9.32679991 28.6925771,9.32679991 L19.0773334,9.32679991 C18.0152629,9.32679991 17.1542847,8.46582167 17.1542847,7.40375117 C17.1542847,6.34168068 18.0152629,5.48070244 19.0773334,5.48070244 L19.0773334,5.48070244 Z M41.3077769,17.8266753 L6.69289955,17.8266753 C5.63082906,17.8266753 4.76985081,16.9656971 4.76985081,15.9036266 C4.76985081,14.8415561 5.63082906,13.9805779 6.69289955,13.9805779 L41.3077769,13.9805779 C42.3698474,13.9805779 43.2308256,14.8415561 43.2308256,15.9036266 C43.2308256,16.9656971 42.3698474,17.8266753 41.3077769,17.8266753 Z" id="形状" fill="#808080"></path>
                    </g>
                </g>
            </g>
        </g>
    </g>
</svg>