<?xml version="1.0" encoding="UTF-8"?>
<svg width="48px" height="48px" viewBox="0 0 48 48" version="1.1" xmlns="http://www.w3.org/2000/svg" xmlns:xlink="http://www.w3.org/1999/xlink">
    <title>pes_ico_all</title>
    <g id="页面-1" stroke="none" stroke-width="1" fill="none" fill-rule="evenodd">
        <g id="6-1我的" transform="translate(-102.000000, -1175.000000)" fill-rule="nonzero">
            <g id="编组-2" transform="translate(30.000000, 1057.000000)">
                <g id="订单" transform="translate(72.000000, 118.000000)">
                    <g id="编组-3">
                        <rect id="矩形" fill="#000000" opacity="0" x="0" y="3.55271368e-15" width="48" height="48"></rect>
                        <path d="M29.0318333,-3.55271368e-15 L18.5077439,-3.55271368e-15 C17.2169482,-3.55271368e-15 16.1849522,1.14844771 16.1849522,2.56807326 C16.1849522,3.99095621 17.2188483,5.14282418 18.5077982,5.14282418 L29.0969269,5.14282418 C30.3227919,5.14282418 31.3563623,3.99095621 31.3563623,2.56807326 C31.3566337,1.14839342 30.324312,-3.55271368e-15 29.0318333,-3.55271368e-15 L29.0318333,-3.55271368e-15 Z M40.4591974,1.71403947 L35.2184886,1.71403947 C35.271747,1.99542382 35.3025293,2.28001127 35.3025293,2.56801897 C35.304158,4.72978692 33.7359954,6.85729797 31.8706501,6.85729797 L15.770232,6.85729797 C13.8071106,6.85729797 12.2368307,4.72978692 12.2368307,2.56807326 C12.2387308,2.28001127 12.2695132,1.99542382 12.3227715,1.71403947 L7.01876077,1.71403947 C2.75516087,1.71403947 1.70769231,4.13118692 1.70769231,7.61806178 L1.70769231,42.1578138 C1.70769231,45.903597 3.20766686,48 7.34069964,48 L40.1368785,48 C44.2699656,48 46.2791248,46.3563202 46.2791248,42.159714 L46.2791248,7.61800749 C46.2791248,4.13145837 44.3984154,1.71403947 40.4592517,1.71403947 L40.4592517,1.71403947 L40.4591974,1.71403947 Z M35.0748377,35.8166496 L12.2848772,35.8166496 C11.4449045,35.8166496 10.6063433,34.786228 10.6063433,33.9448981 C10.6063433,33.1063912 11.3160747,32.3881363 12.1561017,32.3881363 L34.8809143,32.3881363 C35.7207241,32.3881363 36.4303469,33.0410262 36.4940832,33.9448981 C36.4940832,34.7864995 35.9145389,35.8166496 35.0747834,35.8166496 L35.0748377,35.8166496 Z M35.1674562,26.6713054 L12.3772786,26.6713054 C11.537143,26.6713054 11.0022793,25.768085 11.0022793,24.9261036 C11.0022793,24.0844479 11.7123364,23.2427379 12.5520376,23.2427379 L35.2769045,23.2427379 C36.1169858,23.2427379 36.8266629,24.0225574 36.8900191,24.9261036 C36.8900191,25.7677593 36.0056373,26.6713054 35.1674019,26.6713054 L35.1674562,26.6713054 Z M35.1674562,17.2786167 L12.3772786,17.2786167 C11.537143,17.2786167 11.0022793,16.3750163 11.0022793,15.5334148 C11.0022793,14.6917048 11.7123364,13.8500491 12.5520376,13.8500491 L35.2769045,13.8500491 C36.1169858,13.8500491 36.8266629,14.6301944 36.8900191,15.5334148 C36.8900191,16.3750163 36.0056373,17.2785624 35.1674019,17.2785624 L35.1674562,17.2786167 Z" id="形状" fill="#808080"></path>
                    </g>
                </g>
            </g>
        </g>
    </g>
</svg>