<?xml version="1.0" encoding="UTF-8"?>
<svg width="44px" height="44px" viewBox="0 0 44 44" version="1.1" xmlns="http://www.w3.org/2000/svg" xmlns:xlink="http://www.w3.org/1999/xlink">
    <title>tab_ico_index_nor</title>
    <g id="页面-1" stroke="none" stroke-width="1" fill="none" fill-rule="evenodd">
        <g id="2-1转卖" transform="translate(-88.000000, -1473.000000)" fill-rule="nonzero">
            <g id="底部标签" transform="translate(0.000000, 1457.000000)">
                <g id="首页hover" transform="translate(88.000000, 16.000000)">
                    <g id="编组-5">
                        <rect id="矩形" fill="#000000" opacity="0" x="0" y="0" width="44" height="44"></rect>
                        <path d="M19.2614388,3.54517528 C20.9133424,2.41827491 23.0868992,2.41827491 24.7388027,3.54517528 L39.1019254,13.3032979 C40.4826956,14.2494554 41.3057832,15.8175854 41.3002332,17.4914161 L41.3002332,36.2684681 C41.3002332,39.0476802 39.0903453,41.3 36.3632434,41.3 L27.9831469,41.3 C27.6224487,41.2969437 27.2777691,41.1505859 27.0250718,40.8931823 C26.7723746,40.6357786 26.6324014,40.2884572 26.636001,39.927764 L26.636001,29.3551779 C26.636001,28.0929524 25.6323966,27.0681179 24.3914012,27.0681179 L19.6049804,27.0681179 C18.3639849,27.0681179 17.3603806,28.0929524 17.3603805,29.3551779 L17.3603805,39.927764 C17.3639801,40.2884572 17.2240069,40.6357786 16.9713097,40.8931823 C16.7186125,41.1505859 16.3739328,41.2969437 16.0132347,41.3 L7.64085815,41.3 C4.90796623,41.3 2.70001822,39.0476802 2.70001822,36.2684681 L2.70001822,17.4894861 C2.69553347,15.8159769 3.51930862,14.2486363 4.90024618,13.3032979 L19.2614388,3.54517528 Z" id="形状" fill="#CCCCCC"></path>
                    </g>
                </g>
            </g>
        </g>
    </g>
</svg>