<?xml version="1.0" encoding="UTF-8"?>
<svg width="44px" height="44px" viewBox="0 0 44 44" version="1.1" xmlns="http://www.w3.org/2000/svg" xmlns:xlink="http://www.w3.org/1999/xlink">
    <title>tab_ico_wo_hover</title>
    <g id="页面-1" stroke="none" stroke-width="1" fill="none" fill-rule="evenodd">
        <g id="3-1我的" transform="translate(-618.000000, -1473.000000)" fill-rule="nonzero">
            <g id="底部标签" transform="translate(0.000000, 1457.000000)">
                <g id="我的hover" transform="translate(618.000000, 16.000000)">
                    <g id="编组-9">
                        <rect id="矩形" fill="#000000" opacity="0" x="0" y="0" width="44" height="44"></rect>
                        <path d="M28.1875,32.071875 C34.69125,33.045375 39.1875,35.473625 39.1875,38.834125 C39.1875,41.713375 32.4775,42.625 22,42.625 C11.5225,42.625 4.8125,41.713375 4.8125,38.834125 C4.8125,35.473625 9.30875,33.045375 15.8125,32.071875 L15.8125,30.37375 C13.37875,28.417125 11.319,25.606625 10.115875,22.462 C9.087375,21.62875 8.35725,20.257875 7.772875,18.26 C7.222875,16.3845 7.775625,14.76475 9.076375,13.679875 C9.945375,6.03625 14.881625,1.375 22.09625,1.375 C29.211875,1.375 33.99825,5.918 34.904375,13.468125 C36.169375,14.5365 36.74,16.214 36.278,18.1885 C35.706,20.62775 34.9525,22.163625 33.743875,22.89925 C32.5215,25.933875 30.52225,28.622 28.1875,30.4865 L28.1875,32.071875 L28.1875,32.071875 Z" id="形状" fill="#447FFF"></path>
                    </g>
                </g>
            </g>
        </g>
    </g>
</svg>