<?xml version="1.0" encoding="UTF-8"?>
<svg width="44px" height="44px" viewBox="0 0 44 44" version="1.1" xmlns="http://www.w3.org/2000/svg" xmlns:xlink="http://www.w3.org/1999/xlink">
    <title>tab_ico_shop_nor</title>
    <g id="页面-1" stroke="none" stroke-width="1" fill="none" fill-rule="evenodd">
        <g id="6-1我的" transform="translate(-448.000000, -1474.000000)" fill-rule="nonzero">
            <g id="底部标签" transform="translate(0.000000, 1458.000000)">
                <g id="shop_fill" transform="translate(448.000000, 16.000000)">
                    <g id="编组">
                        <rect id="矩形" fill="#000000" opacity="0" x="0" y="0" width="44" height="44"></rect>
                        <path d="M42.5941504,15.1726987 C42.5911218,15.1499846 42.586579,15.1287847 42.5820362,15.1106134 C42.5638648,15.0227854 42.5396364,14.9379859 42.5048081,14.8562149 L38.9553436,6.02041081 C38.3420616,4.19419319 36.6445575,3.06 34.5094275,3.06 L9.59503413,3.06 C7.50230383,3.06 5.87597074,4.17299332 5.28691713,5.93258276 L1.47094003,14.9485858 C1.45276871,15.0015855 1.43308312,15.0803279 1.41642607,15.1605845 C1.13931345,16.011608 1,16.8853456 1,17.7621118 C1.00302855,20.8466933 2.69598982,23.6632478 5.41411637,25.109382 C6.53316679,25.7090355 7.85210174,26.0118908 9.33306428,26.0118908 L9.33760711,26.0118908 C11.8225351,26.0058337 14.1242355,24.9140403 15.6930261,23.0454229 C17.2542453,24.8973832 19.5377745,25.9831196 22.0181596,25.9982623 C24.4788591,25.980091 26.7548169,24.8898118 28.309979,23.0378515 C29.8787695,24.9064689 32.1834986,25.9952338 34.6805407,25.9952338 C36.1917888,25.9861481 37.5334379,25.6696643 38.6630883,25.0488109 C41.3403293,23.587534 43.0014908,20.7815794 42.9999883,17.730312 C43.0014908,16.8520315 42.8576345,15.9737511 42.5941504,15.1726987 L42.5941504,15.1726987 Z M33.773489,16.6491184 L9.54354873,16.6491184 C8.70766803,16.6491184 8.0292721,15.9707225 8.0292721,15.1348418 C8.0292721,14.2989611 8.70766803,13.6205652 9.54354873,13.6205652 L33.773489,13.6205652 C34.610884,13.6205652 35.2877657,14.2989611 35.2877657,15.1348418 C35.2877657,15.9707225 34.610884,16.6491184 33.773489,16.6491184 Z M39.8608811,28.7648457 C39.8608811,27.9274508 39.1839994,27.2505691 38.3466044,27.2505691 C38.1906339,27.2505691 38.0498062,27.2944831 37.9089785,27.3399114 C36.7868995,27.7835945 35.3513653,28.0228502 34.2686575,27.9637934 C31.8821575,27.8365942 30.0635113,27.3611113 28.3114932,25.8695488 C26.5837036,27.34294 24.3789168,28.1818492 22.0317881,28.2030491 C19.6513452,28.1879063 17.4344442,27.5912814 15.6975689,26.1148616 C13.9500937,27.6049098 11.7195642,28.3302483 9.34366421,28.3302483 L9.33457855,28.3302483 C7.88390154,28.3302483 7.06619217,28.05465 5.74574295,27.5670529 C5.70940031,27.5488816 5.67154339,27.5397959 5.63368648,27.5261675 C5.57008686,27.501939 5.52163001,27.485282 5.45651611,27.4610536 C5.45651611,27.4610536 5.23846028,27.4231966 5.11883242,27.4231966 L5.11580387,27.4231966 C4.27992317,27.4231966 3.60304152,28.1031069 3.60455326,28.9405018 L3.61515573,37.0555103 C3.61515573,39.1906403 5.35505958,40.9275156 7.49473245,40.9275156 L35.99039,40.9093443 C38.1270343,40.9032872 39.8654239,39.1618691 39.8654239,37.026739 L39.8608811,28.7648457 Z" id="形状" fill="#CCCCCC"></path>
                    </g>
                </g>
            </g>
        </g>
    </g>
</svg>