<?xml version="1.0" encoding="UTF-8"?>
<svg width="44px" height="44px" viewBox="0 0 44 44" version="1.1" xmlns="http://www.w3.org/2000/svg" xmlns:xlink="http://www.w3.org/1999/xlink">
    <title>tab_ico_mai_hover</title>
    <g id="页面-1" stroke="none" stroke-width="1" fill="none" fill-rule="evenodd">
        <g id="2-1转卖" transform="translate(-353.000000, -1473.000000)" fill-rule="nonzero">
            <g id="底部标签" transform="translate(0.000000, 1457.000000)">
                <g id="发现hover" transform="translate(353.000000, 16.000000)">
                    <g id="编组-6">
                        <rect id="矩形" fill="#000000" opacity="0" x="0" y="0" width="44" height="44"></rect>
                        <path d="M25.8280679,1.0181605 L38.3793248,8.19072102 C40.7855695,9.56612633 42.2702144,12.1253565 42.2702144,14.8969541 L42.2702144,29.1030459 C42.2702144,31.8746435 40.7855695,34.4338737 38.3793248,35.809279 L25.8280679,42.9818395 C23.4530654,44.3393868 20.537149,44.3393868 18.1621465,42.9818395 L5.6108896,35.809279 C3.20464492,34.4338737 1.72,31.8746435 1.72,29.1030459 L1.72,14.8969541 C1.72,12.1253565 3.20464492,9.56612633 5.6108896,8.19072102 L18.1621465,1.0181605 C20.537149,-0.339386834 23.4530654,-0.339386834 25.8280679,1.0181605 Z M29.1672505,12.5003117 L29.0218801,12.5411797 L18.442136,15.9609145 C17.3312246,16.3199608 16.4462785,17.1606796 16.0279633,18.2424052 L15.9550562,18.4479943 L12.5353215,29.0277383 C12.3124486,29.7175867 12.4947506,30.4741467 13.0073728,30.9867689 C13.4805625,31.4599586 14.1616046,31.6516921 14.8061647,31.5030941 L14.9664034,31.4588203 L25.5461474,28.0390855 C26.6570588,27.6800392 27.5420049,26.8393204 27.9603202,25.7575948 L28.0332272,25.5520057 L31.4529619,14.9722617 C31.5777071,14.5862422 31.5777071,14.1707391 31.4529619,13.7847197 C31.1406087,12.8183534 30.1385271,12.2673624 29.1672505,12.5003117 Z M28.5509667,15.4953115 L25.5261112,24.7659565 L25.48363,24.8731249 C25.3869662,25.0830335 25.2188446,25.2501013 25.0112688,25.3458987 L24.9043413,25.3877265 L15.4890315,28.5207182 L18.6867517,19.1290155 L18.7292329,19.0218471 C18.8258968,18.8119386 18.9940184,18.6448707 19.2015941,18.5490734 L19.3085217,18.5072456 L28.5509667,15.4953115 Z M21.9951072,20.0690374 C20.928666,20.0690374 20.0641446,20.9335588 20.0641446,22 C20.0641446,23.0664412 20.928666,23.9309626 21.9951072,23.9309626 C23.0615484,23.9309626 23.9260698,23.0664412 23.9260698,22 C23.9260698,20.9335588 23.0615484,20.0690374 21.9951072,20.0690374 Z" id="形状结合" fill="#447FFF"></path>
                    </g>
                </g>
            </g>
        </g>
    </g>
</svg>