<?xml version="1.0" encoding="UTF-8"?>
<svg width="52px" height="52px" viewBox="0 0 52 52" version="1.1" xmlns="http://www.w3.org/2000/svg" xmlns:xlink="http://www.w3.org/1999/xlink">
    <title>fen_ico_ma</title>
    <g id="页面-1" stroke="none" stroke-width="1" fill="none" fill-rule="evenodd">
        <g id="6-2我的分销" transform="translate(-264.000000, -921.000000)" fill-rule="nonzero">
            <g id="编组" transform="translate(30.000000, 697.000000)">
                <g id="qr-code-fill-round-2.5" transform="translate(234.000000, 224.000000)">
                    <g id="编组-7">
                        <rect id="矩形" fill="#000000" opacity="0" x="0" y="0" width="52" height="52"></rect>
                        <path d="M36.2133092,3 C34.8022833,3 33.6584209,4.14386248 33.6584209,5.55488836 L33.6584209,15.7743221 C33.6584209,16.4519206 33.9275958,17.1017664 34.4067303,17.580901 C34.8858648,18.0600355 35.5357107,18.3292104 36.2133092,18.3292104 L46.4327429,18.3292104 C47.8437688,18.3292104 48.9876313,17.1853479 48.9876313,15.7743221 L48.9876313,5.55488836 C48.9876313,4.87728984 48.7184563,4.22744399 48.2393218,3.74830948 C47.7601873,3.26917497 47.1103414,3 46.4327429,3 L36.2133092,3 Z M38.7681377,13.2194936 L38.7681377,8.10971685 L43.8779144,8.10971685 L43.8779144,13.2194936 L38.7681377,13.2194936 Z M46.4327429,29.1873812 C47.8437454,29.1873812 48.9876313,28.0435552 48.9876313,26.6325527 L48.9876313,25.3550786 C48.9876313,23.9440761 47.8437454,22.8002501 46.4327429,22.8002501 L36.2133092,22.8002501 C34.8023067,22.8002501 33.6584209,23.9440761 33.6584209,25.3550786 L33.6584209,26.6325527 C33.6584209,28.0435552 34.8023067,29.1873812 36.2133092,29.1873812 L46.4327429,29.1873812 Z M42.6004403,43.8779144 C42.6004403,43.5391024 42.73501,43.2141626 42.9745863,42.9745863 C43.2141626,42.73501 43.5391024,42.6004403 43.8779144,42.6004403 L47.710217,42.6004403 C48.0490187,42.6004403 48.3739431,42.7350329 48.6135065,42.9746075 C48.8530698,43.214182 48.9876313,43.5391127 48.9876313,43.8779144 L48.9876313,47.710217 C48.9876313,48.4157134 48.4157134,48.9876313 47.710217,48.9876313 L43.8779144,48.9876313 C43.5391127,48.9876313 43.214182,48.8530698 42.9746075,48.6135065 C42.7350329,48.3739431 42.6004403,48.0490187 42.6004403,47.710217 L42.6004403,43.8779144 L42.6004403,43.8779144 Z M33.6583908,36.2133092 C33.6583908,34.8022833 34.8022833,33.6583908 36.2133092,33.6583908 L46.4327429,33.6583908 C47.3484525,33.6539877 48.1965062,34.1399691 48.6556455,34.9322662 C49.1147848,35.7245633 49.1147848,36.7019952 48.6556455,37.4942924 C48.1965062,38.2865895 47.3484525,38.7725709 46.4327429,38.7681377 L38.7681377,38.7681377 L38.7681377,46.4327429 C38.7725709,47.3484525 38.2865895,48.1965062 37.4942924,48.6556455 C36.7019952,49.1147848 35.7245633,49.1147848 34.9322662,48.6556455 C34.1399691,48.1965062 33.6539877,47.3484525 33.6583908,46.4327429 L33.6583908,36.2133092 L33.6583908,36.2133092 Z M25.3550786,48.9876313 C23.9440761,48.9876313 22.8002501,47.8437454 22.8002501,46.4327429 L22.8002501,36.2133092 C22.8002501,34.8023067 23.9440761,33.6584209 25.3550786,33.6584209 L26.6325527,33.6584209 C28.0435552,33.6584209 29.1873812,34.8023067 29.1873812,36.2133092 L29.1873812,46.4327429 C29.1873812,47.8437454 28.0435552,48.9876313 26.6325527,48.9876313 L25.3550786,48.9876313 L25.3550786,48.9876313 Z M5.55488836,33.6584209 C4.14386248,33.6584209 3,34.8022833 3,36.2133092 L3,46.4327429 C3,47.8437688 4.14386248,48.9876313 5.55488836,48.9876313 L15.7743221,48.9876313 C16.4519206,48.9876313 17.1017664,48.7184563 17.580901,48.2393218 C18.0600355,47.7601873 18.3292104,47.1103414 18.3292104,46.4327429 L18.3292104,36.2133092 C18.3292104,34.8022833 17.1853479,33.6584209 15.7743221,33.6584209 L5.55488836,33.6584209 Z M8.10971685,43.8779144 L8.10971685,38.7681377 L13.2194936,38.7681377 L13.2194936,43.8779144 L8.10971685,43.8779144 L8.10971685,43.8779144 Z M12.5807565,13.8581708 C12.5807565,13.1526744 13.1526744,12.5807565 13.8581708,12.5807565 L17.6904734,12.5807565 C18.0292751,12.5807565 18.3542058,12.715318 18.5937803,12.9548813 C18.8333549,13.1944447 18.9679475,13.5193691 18.9679475,13.8581708 L18.9679475,17.6904734 C18.9679475,18.0292854 18.8333778,18.3542252 18.5938015,18.5938015 C18.3542252,18.8333778 18.0292854,18.9679475 17.6904734,18.9679475 L13.8581708,18.9679475 C13.5193691,18.9679475 13.1944447,18.8333549 12.9548813,18.5937803 C12.715318,18.3542058 12.5807565,18.0292751 12.5807565,17.6904734 L12.5807565,13.8581708 L12.5807565,13.8581708 Z M5.55488836,3 C4.14386248,3 3,4.14386248 3,5.55488836 L3,25.9938156 C3,27.4048415 4.14386248,28.548704 5.55488836,28.548704 L25.9938156,28.548704 C27.4048415,28.548704 28.548704,27.4048415 28.548704,25.9938156 L28.548704,5.55488836 C28.548704,4.14386248 27.4048415,3 25.9938156,3 L5.55488836,3 Z M9.38719097,22.161513 L9.38719097,9.38719097 L22.161513,9.38719097 L22.161513,22.161513 L9.38719097,22.161513 Z" id="形状" fill="#447FFF"></path>
                    </g>
                </g>
            </g>
        </g>
    </g>
</svg>