<?xml version="1.0" encoding="UTF-8"?>
<svg width="52px" height="52px" viewBox="0 0 52 52" version="1.1" xmlns="http://www.w3.org/2000/svg" xmlns:xlink="http://www.w3.org/1999/xlink">
    <title>fen_ico_fen</title>
    <g id="页面-1" stroke="none" stroke-width="1" fill="none" fill-rule="evenodd">
        <g id="6-2我的分销" transform="translate(-94.000000, -737.000000)">
            <g id="编组" transform="translate(30.000000, 697.000000)">
                <g id="分销订单" transform="translate(64.000000, 40.000000)">
                    <g id="编组-2">
                        <rect id="矩形" fill="#000000" fill-rule="nonzero" opacity="0" x="0" y="0" width="52" height="52"></rect>
                        <path d="M43,1.5 C46.3137085,1.5 49,4.1862915 49,7.5 L49,44.5 C49,47.8137085 46.3137085,50.5 43,50.5 L9,50.5 C5.6862915,50.5 3,47.8137085 3,44.5 L3,7.5 C3,4.1862915 5.6862915,1.5 9,1.5 L43,1.5 Z M35.903155,40.7 L16.0874956,40.7 C15.2446961,40.7 14.562,41.4318324 14.562,42.3334701 C14.562,43.2348664 15.2480265,43.9666988 16.0874956,43.9666988 L35.903155,43.9666988 C36.7459545,43.9666988 37.4286506,43.2348664 37.4286506,42.3334701 C37.4286506,41.4318324 36.7426723,40.7 35.903155,40.7 Z M35.903155,34.1666988 L16.0874956,34.1666988 C15.2446961,34.1666988 14.562,34.898483 14.562,35.8001207 C14.562,36.7015652 15.2480265,37.4333494 16.0874956,37.4333494 L35.903155,37.4333494 C36.7459545,37.4333494 37.4286506,36.7015652 37.4286506,35.8001207 C37.4286506,34.898483 36.7426723,34.1666988 35.903155,34.1666988 Z M25.9528981,8.03339769 C23.4898056,8.03339769 21.4873784,10.1829443 21.4873784,12.8255439 C21.4873784,15.0828237 22.9572698,16.9775177 24.9206485,17.480562 L24.9271646,18.4572074 C22.9212622,18.7969626 18.4458959,20.0121462 16.9989316,24.0989105 C15.6007657,24.474432 14.5619517,25.8303155 14.5619517,27.4471333 C14.5619517,29.3516256 16.0058752,30.9000483 17.7795625,30.9000483 C19.5534429,30.9000483 20.9974146,29.3516256 20.9974146,27.4471333 C20.9974146,26.0751284 20.2492677,24.892622 19.1711639,24.3339735 C20.3831136,21.9395173 23.3231377,21.0345975 24.9370112,20.7144872 L24.9533256,24.1772005 C23.6891022,24.6442855 22.7775697,25.931436 22.7775697,27.4438511 C22.7775697,29.3516256 24.2215415,30.9000483 25.9954218,30.9000483 C27.7691091,30.9000483 29.2130326,29.3516256 29.2130326,27.4438511 C29.2130326,25.9281538 28.2982662,24.6379624 27.0244375,24.1772005 L27.0081231,20.685044 C28.5761424,20.9792346 31.633698,21.8481469 32.8944944,24.2980141 C31.712905,24.8985106 30.9755218,26.1185692 30.9935256,27.4438511 C30.9935256,29.3516256 32.4306916,30.9000483 34.2111364,30.9000483 C35.9850167,30.9000483 37.4287471,29.3516256 37.4287471,27.4438511 C37.4287471,25.8725978 36.4389729,24.5397862 35.0964596,24.1281607 C33.6196659,19.9076952 28.9223655,18.7382693 26.9949943,18.4312394 L26.9949943,17.4740459 C28.9548978,16.9709533 30.4151839,15.0795415 30.4151839,12.8222617 C30.4151839,10.1829443 28.4127568,8.03339769 25.9528981,8.03339769 Z" id="形状结合" fill="#447FFF"></path>
                    </g>
                </g>
            </g>
        </g>
    </g>
</svg>