<?xml version="1.0" encoding="UTF-8"?>
<svg width="110px" height="110px" viewBox="0 0 110 110" version="1.1" xmlns="http://www.w3.org/2000/svg" xmlns:xlink="http://www.w3.org/1999/xlink">
    <title>ico_ren</title>
    <g id="页面-1" stroke="none" stroke-width="1" fill="none" fill-rule="evenodd">
        <g id="3-1我的" transform="translate(-320.000000, -841.000000)">
            <g id="编组-2" transform="translate(30.000000, 723.000000)">
                <g id="编组-6" transform="translate(290.000000, 118.000000)">
                    <g id="编组-5">
                        <circle id="椭圆形" fill="#E8EFFC" cx="55" cy="55" r="55"></circle>
                        <g id="浏览记录-填充" transform="translate(25.000000, 25.000000)" fill-rule="nonzero">
                            <rect id="矩形" fill="#000000" opacity="0" x="0" y="0" width="60" height="60"></rect>
                            <path d="M41.4595082,32.3770492 C34.0431148,32.3770492 28.1480328,38.2721311 28.1480328,45.6885246 C28.1480328,53.104918 34.0431148,59 41.4595082,59 C48.8759016,59 54.7709836,53.104918 54.7709836,45.6885246 C54.7709836,38.2721311 48.8759016,32.3770492 41.4595082,32.3770492 Z M46.2136066,48.5409836 L40.5086885,48.5409836 C39.3677049,48.5409836 38.6070492,47.7803279 38.6070492,46.6393443 L38.6070492,42.8360656 C38.6070492,41.695082 39.3677049,40.9344262 40.5086885,40.9344262 C41.6496721,40.9344262 42.4103279,41.695082 42.4103279,42.8360656 L42.4103279,44.7377049 L46.2136066,44.7377049 C47.3545902,44.7377049 48.1152459,45.4983607 48.1152459,46.6393443 C48.1152459,47.7803279 47.3545902,48.5409836 46.2136066,48.5409836 Z M25.2955738,45.6885246 C25.2955738,36.7508197 32.5218033,29.5245902 41.4595082,29.5245902 C45.8332787,29.5245902 50.0168852,31.2360656 52.8693443,34.2786885 L52.8693443,10.5081967 C52.8693443,5.18360656 48.6857377,1 43.3611475,1 L10.934918,1 C7.70213115,1 5.23,3.47213115 5.23,6.70491803 L5.23,52.3442623 C5.23,55.5770492 7.70213115,58.0491803 10.934918,58.0491803 L30.8103279,57.8590164 C27.387377,55.0065574 25.2955738,50.6327869 25.2955738,45.6885246 Z M15.4988525,12.4098361 L28.1480328,12.4098361 C29.0988525,12.4098361 29.8595082,13.1704918 29.8595082,14.3114754 C29.8595082,15.452459 29.0988525,16.2131148 28.1480328,16.2131148 L15.4988525,16.2131148 C14.5480328,16.2131148 13.787377,15.452459 13.787377,14.3114754 C13.787377,13.1704918 14.5480328,12.4098361 15.4988525,12.4098361 Z M13.787377,25.7213115 C13.787377,24.5803279 14.5480328,23.8196721 15.6890164,23.8196721 L39.5578689,23.8196721 C40.6988525,23.8196721 41.4595082,24.5803279 41.4595082,25.7213115 C41.4595082,26.8622951 40.6988525,27.6229508 39.5578689,27.6229508 L15.6890164,27.6229508 C14.5480328,27.6229508 13.787377,26.8622951 13.787377,25.7213115 Z" id="形状" fill="#447FFF"></path>
                        </g>
                    </g>
                </g>
            </g>
        </g>
    </g>
</svg>