<?xml version="1.0" encoding="UTF-8"?>
<svg width="110px" height="110px" viewBox="0 0 110 110" version="1.1" xmlns="http://www.w3.org/2000/svg" xmlns:xlink="http://www.w3.org/1999/xlink">
    <title>ico_wan</title>
    <g id="页面-1" stroke="none" stroke-width="1" fill="none" fill-rule="evenodd">
        <g id="3-1我的" transform="translate(-550.000000, -841.000000)">
            <g id="编组-2" transform="translate(30.000000, 723.000000)">
                <g id="编组-7" transform="translate(520.000000, 118.000000)">
                    <g id="编组-8">
                        <circle id="椭圆形" fill="#E8EFFC" cx="55" cy="55" r="55"></circle>
                        <g id="浏览记录-填充" transform="translate(25.000000, 25.000000)" fill-rule="nonzero">
                            <rect id="矩形" fill="#000000" opacity="0" x="0" y="0" width="60" height="60"></rect>
                            <path d="M41.4595082,32.3770492 C48.8759016,32.3770492 54.7709836,38.2721311 54.7709836,45.6885246 C54.7709836,53.104918 48.8759016,59 41.4595082,59 C34.0431148,59 28.1480328,53.104918 28.1480328,45.6885246 C28.1480328,38.2721311 34.0431148,32.3770492 41.4595082,32.3770492 Z M43.3611475,1 C48.6857377,1 52.8693443,5.18360656 52.8693443,10.5081967 L52.8693443,10.5081967 L52.8693443,34.2786885 C50.0168852,31.2360656 45.8332787,29.5245902 41.4595082,29.5245902 C32.5218033,29.5245902 25.2955738,36.7508197 25.2955738,45.6885246 C25.2955738,50.6327869 27.387377,55.0065574 30.8103279,57.8590164 L30.8103279,57.8590164 L10.934918,58.0491803 C7.70213115,58.0491803 5.23,55.5770492 5.23,52.3442623 L5.23,52.3442623 L5.23,6.70491803 C5.23,3.47213115 7.70213115,1 10.934918,1 L10.934918,1 Z M47.2147175,41.2333204 C46.4466836,40.7699611 45.4501437,41.0175092 44.9867844,41.7918905 L44.9867844,41.7918905 L40.9879302,48.056648 L37.5286039,46.1525459 C36.7859595,45.6511022 35.7703775,45.8542186 35.2752812,46.6032104 C34.7738376,47.3458547 34.976954,48.3614368 35.7259457,48.856533 L35.7259457,48.856533 L40.6007395,51.706396 C40.8673298,51.8904702 41.1846992,51.979333 41.5020686,51.979333 C41.6163215,51.979333 41.7369219,51.9729853 41.8638697,51.934901 C42.295492,51.8333428 42.6699879,51.5667533 42.8984939,51.18591 L42.8984939,51.18591 L47.7732876,43.4612535 C48.2366469,42.6932195 47.9890988,41.6966797 47.2147175,41.2333204 Z M39.5578689,23.8196721 L15.6890164,23.8196721 C14.5480328,23.8196721 13.787377,24.5803279 13.787377,25.7213115 C13.787377,26.8622951 14.5480328,27.6229508 15.6890164,27.6229508 L15.6890164,27.6229508 L39.5578689,27.6229508 C40.6988525,27.6229508 41.4595082,26.8622951 41.4595082,25.7213115 C41.4595082,24.5803279 40.6988525,23.8196721 39.5578689,23.8196721 L39.5578689,23.8196721 Z M28.1480328,12.4098361 L15.4988525,12.4098361 C14.5480328,12.4098361 13.787377,13.1704918 13.787377,14.3114754 C13.787377,15.452459 14.5480328,16.2131148 15.4988525,16.2131148 L15.4988525,16.2131148 L28.1480328,16.2131148 C29.0988525,16.2131148 29.8595082,15.452459 29.8595082,14.3114754 C29.8595082,13.1704918 29.0988525,12.4098361 28.1480328,12.4098361 L28.1480328,12.4098361 Z" id="形状结合" fill="#447FFF"></path>
                        </g>
                    </g>
                </g>
            </g>
        </g>
    </g>
</svg>