<?xml version="1.0" encoding="UTF-8"?>
<svg width="20px" height="20px" viewBox="0 0 20 20" version="1.1" xmlns="http://www.w3.org/2000/svg" xmlns:xlink="http://www.w3.org/1999/xlink">
    <title>ico_shu</title>
    <g id="页面-1" stroke="none" stroke-width="1" fill="none" fill-rule="evenodd">
        <g id="2-1转卖" transform="translate(-304.000000, -404.000000)" fill-rule="nonzero">
            <g id="认养" transform="translate(30.000000, 288.000000)">
                <g id="12台站数量" transform="translate(274.000000, 116.000000)">
                    <g id="编组">
                        <rect id="矩形" fill="#000000" opacity="0" x="0" y="5.32907052e-15" width="20" height="20"></rect>
                        <path d="M18,5.875 C18.625,5.875 19.1875,6.4375 19.1875,7.0625 L19.1875,7.0625 L19.1875,18.8125 C19.1875,19.5 18.6875,20 18,20 L18,20 L2,20 C1.375,20 0.8125,19.5 0.8125,18.8125 L0.8125,18.8125 L0.8125,7.0625 C0.8125,6.4375 1.3125,5.875 2,5.875 L2,5.875 Z M17.6875,13.6875 L2.25,13.6875 L2.25,18.5625 L17.6875,18.5625 L17.6875,13.6875 Z M15.1875,15.1875 C15.625,15.1875 15.9375,15.5 15.9375,15.9375 C15.9375,16.375 15.625,16.6875 15.1875,16.6875 L15.1875,16.6875 L9.25,16.6875 C8.875,16.6875 8.5,16.3125 8.5,15.9375 C8.5,15.5 8.8125,15.1875 9.25,15.1875 L9.25,15.1875 Z M17.6875,7.375 L2.25,7.375 L2.25,12.1875 L17.6875,12.1875 L17.6875,7.375 Z M15.1875,9.0625 C15.625,9.0625 15.9375,9.375 15.9375,9.8125 C15.9375,10.25 15.625,10.5625 15.1875,10.5625 L15.1875,10.5625 L12.1875,10.5625 C11.8125,10.5625 11.4375,10.25 11.4375,9.8125 C11.4375,9.375 11.75,9.0625 12.1875,9.0625 L12.1875,9.0625 Z M16.5,2.9375 C16.9375,2.9375 17.25,3.25 17.25,3.6875 C17.25,4.125 16.9375,4.4375 16.5,4.4375 L16.5,4.4375 L3.3125,4.4375 C2.875,4.4375 2.5625,4.0625 2.5625,3.6875 C2.5625,3.25 2.875,2.9375 3.3125,2.9375 L3.3125,2.9375 Z M14.0625,5.32907052e-15 C14.5,5.32907052e-15 14.8125,0.3125 14.8125,0.75 C14.8125,1.1875 14.5,1.5 14.0625,1.5 L14.0625,1.5 L5.6875,1.5 C5.3125,1.5 4.9375,1.125 4.9375,0.75 C4.9375,0.3125 5.3125,5.32907052e-15 5.6875,5.32907052e-15 L5.6875,5.32907052e-15 Z" id="形状结合" fill="#999999"></path>
                    </g>
                </g>
            </g>
        </g>
    </g>
</svg>