<?xml version="1.0" encoding="UTF-8"?>
<svg width="46px" height="46px" viewBox="0 0 46 46" version="1.1" xmlns="http://www.w3.org/2000/svg" xmlns:xlink="http://www.w3.org/1999/xlink">
    <title>ico_wei</title>
    <g id="页面-1" stroke="none" stroke-width="1" fill="none" fill-rule="evenodd">
        <g id="3-2提现" transform="translate(-149.000000, -642.000000)">
            <g id="编组" transform="translate(30.000000, 505.000000)">
                <g id="Group-3" transform="translate(119.000000, 137.000000)">
                    <g id="编组-2">
                        <polygon id="Clip-2" points="3.55271368e-15 0 46 0 46 46 3.55271368e-15 46"></polygon>
                        <path d="M16.7299866,28.302164 C16.5224788,28.4054335 16.2883375,28.4651451 16.0398549,28.4651451 C15.4650379,28.4651451 14.965146,28.1530291 14.702615,27.6920667 L14.6019342,27.4748548 L10.4149011,18.4194527 C10.3695362,18.3207987 10.3414392,18.2097408 10.3414392,18.101279 C10.3414392,17.6838744 10.684749,17.3455084 11.1082522,17.3455084 C11.2803461,17.3455084 11.4389769,17.40147 11.5671693,17.4957971 L16.507845,20.962823 C16.8693008,21.1956119 17.3001209,21.3320545 17.7640135,21.3320545 C18.0408857,21.3320545 18.3045874,21.2812852 18.5504358,21.1930158 L41.787504,10.9999192 C37.6224216,6.161833 30.7629573,3 23,3 C10.297245,3 3.55271368e-15,11.4571316 3.55271368e-15,21.8905171 C3.55271368e-15,27.5827396 3.09798308,32.7064033 7.94705096,36.1691022 C8.336311,36.4431412 8.59093975,36.8922767 8.59093975,37.39997 C8.59093975,37.5675665 8.55435516,37.7216052 8.51016097,37.8814132 C8.12294967,39.3055506 7.5027677,41.5852665 7.47379271,41.6919975 C7.42550105,41.870844 7.34999046,42.0571905 7.34999046,42.2444024 C7.34999046,42.6615186 7.69359292,43.0001731 8.11709614,43.0001731 C8.28362919,43.0001731 8.41913851,42.9390191 8.55962334,42.8594036 L13.5951263,39.9943981 C13.97385,39.7789169 14.3748171,39.6453589 14.8161736,39.6453589 C15.0514857,39.6453589 15.2786028,39.6808398 15.4925495,39.7454553 C17.8415728,40.4115143 20.3758605,40.7816111 23,40.7816111 C35.7024623,40.7816111 46,32.3236141 46,21.8905171 C46,18.7304149 45.0505567,15.7543515 43.3805434,13.1368464 L16.8979831,28.2066831 L16.7299866,28.302164 Z" id="Fill-1" fill="#00C800"></path>
                    </g>
                </g>
            </g>
        </g>
    </g>
</svg>