<?xml version="1.0" encoding="UTF-8"?>
<svg width="90px" height="90px" viewBox="0 0 90 90" version="1.1" xmlns="http://www.w3.org/2000/svg" xmlns:xlink="http://www.w3.org/1999/xlink">
    <title>ico_play</title>
    <g id="页面-1" stroke="none" stroke-width="1" fill="none" fill-rule="evenodd">
        <g id="1-1首页" transform="translate(-330.000000, -240.000000)">
            <g id="icon/播放-64" transform="translate(330.000000, 240.000000)">
                <g id="编组-8">
                    <rect id="Rectangle-path" fill="#000000" fill-rule="nonzero" opacity="0" x="0" y="0" width="90" height="90"></rect>
                    <path d="M45,0 C20.1471429,0 0,20.1471429 0,45 C0,69.8528571 20.1471429,90 45,90 C69.8528571,90 90,69.8528571 90,45 C90,20.1471429 69.8528571,0 45,0 Z" id="Path" fill="#FFFFFF" opacity="0.699999988"></path>
                    <path d="M35.6906942,58.4910824 L35.6906942,30.5685076 C35.6906942,28.7174014 37.1913122,27.2167834 39.0424184,27.2167834 C39.6592367,27.2167834 40.264093,27.3869937 40.7903888,27.7086729 L61.094304,40.1187062 C62.6737471,41.0840836 63.1715457,43.1470681 62.2061683,44.7265112 C61.9901092,45.080003 61.7103869,45.3903751 61.3811813,45.6418939 L41.0772661,61.1544354 C39.6063368,62.2782508 37.5028806,61.9968593 36.3790653,60.52593 C35.9325794,59.9415376 35.6906942,59.2265171 35.6906942,58.4910824 Z" id="Path" fill="#447FFF"></path>
                </g>
            </g>
        </g>
    </g>
</svg>