<?xml version="1.0" encoding="UTF-8"?>
<svg width="36px" height="36px" viewBox="0 0 36 36" version="1.1" xmlns="http://www.w3.org/2000/svg" xmlns:xlink="http://www.w3.org/1999/xlink">
    <title>ico_xiao</title>
    <g id="页面-1" stroke="none" stroke-width="1" fill="none" fill-rule="evenodd">
        <g id="6-1我的" transform="translate(-60.000000, -1375.000000)" fill-rule="nonzero">
            <g id="分销中心" transform="translate(30.000000, 1343.000000)">
                <g id="分销" transform="translate(30.000000, 32.000000)">
                    <g id="编组-7">
                        <rect id="矩形" fill="#000000" opacity="0" x="0" y="0" width="36" height="36"></rect>
                        <path d="M30.0061883,11.8654709 C33.2752466,11.8654709 35.9389238,9.20179372 35.9389238,5.93273543 C35.9389238,2.66367713 33.2752466,0 30.0061883,0 C26.73713,0 24.0734529,2.66367713 24.0734529,5.93273543 C24.0734529,6.4573991 24.133991,6.94170404 24.2550673,7.42600897 L18.7864574,11.058296 C18.5644843,10.7959641 18.3425112,10.5336323 18.0801794,10.2914798 C16.0824215,8.29372197 13.4389238,7.20403587 10.6138117,7.20403587 C7.78869955,7.20403587 5.14520179,8.29372197 3.14744395,10.2914798 C1.1496861,12.2892377 0.06,14.9327354 0.06,17.7578475 C0.06,20.5829596 1.1496861,23.2264574 3.14744395,25.2242152 C5.14520179,27.2219731 7.78869955,28.3116592 10.6138117,28.3116592 C13.4187444,28.3116592 16.0622422,27.2219731 18.06,25.2443946 L23.8514798,29.2802691 C23.6093274,29.8452915 23.4882511,30.4910314 23.4882511,31.1367713 C23.4882511,32.044843 23.7304036,32.8923767 24.1743498,33.6188341 L18.6653812,33.6188341 C18.0196413,33.6188341 17.4747982,34.1434978 17.4747982,34.809417 C17.4747982,35.455157 17.9994619,36 18.6653812,36 L28.4120179,36 C31.0756951,35.9596413 33.2147085,33.8004484 33.2147085,31.1367713 C33.2147085,28.4529148 31.0353363,26.2735426 28.3514798,26.2735426 C27.1810762,26.2735426 26.1115695,26.67713 25.2842152,27.3632287 L19.5532735,23.367713 C20.6026009,21.6928251 21.1676233,19.7556054 21.1676233,17.7376682 C21.1676233,16.0829596 20.7842152,14.4686099 20.0779372,13.0358744 L25.324574,9.54484305 C26.4344395,10.9573991 28.1093274,11.8654709 30.0061883,11.8654709 Z M30.0061883,2.05829596 C32.1452018,2.05829596 33.8806278,3.79372197 33.8806278,5.93273543 C33.8806278,8.07174888 32.1452018,9.80717489 30.0061883,9.80717489 C27.8671749,9.80717489 26.1317489,8.07174888 26.1317489,5.93273543 C26.1317489,3.79372197 27.8671749,2.05829596 30.0061883,2.05829596 Z M28.3716592,28.6547085 C29.7438565,28.6547085 30.853722,29.764574 30.853722,31.1367713 C30.853722,32.5089686 29.7438565,33.6188341 28.3716592,33.6188341 C26.9994619,33.6188341 25.8895964,32.5089686 25.8895964,31.1367713 C25.8895964,29.764574 26.9994619,28.6547085 28.3716592,28.6547085 Z M10.6541704,25.9506726 C6.13399103,25.9506726 2.46134529,22.2780269 2.46134529,17.7578475 C2.46134529,13.2376682 6.13399103,9.56502242 10.6541704,9.56502242 C15.1743498,9.56502242 18.8469955,13.2376682 18.8469955,17.7578475 C18.8268161,22.2780269 15.1541704,25.9506726 10.6541704,25.9506726 Z" id="形状结合" fill="#666666"></path>
                        <path d="M12.853722,19.1502242 L11.6026009,19.1502242 L11.6026009,18.5044843 L12.853722,18.5044843 C13.4389238,18.5044843 13.88287,18.161435 13.88287,17.7174888 C13.88287,17.2735426 13.4187444,16.9304933 12.853722,16.9304933 L12.1676233,16.9304933 L13.6810762,14.3273543 C13.8425112,14.0650224 13.88287,13.7421525 13.8223318,13.4798206 C13.7819731,13.2780269 13.6407175,13.0964126 13.4591031,12.9955157 C13.0555157,12.7735426 12.4703139,12.9955157 12.2079821,13.4798206 L11.1384753,15.4573991 C10.7550673,16.1636771 10.7348879,16.2242152 10.7348879,16.2242152 L10.7147085,16.264574 C10.2102242,15.2757848 9.28197309,13.5605381 9.24161435,13.4596413 C8.97928251,12.9753363 8.37390135,12.7533632 7.9703139,12.9955157 C7.78869955,13.1165919 7.64744395,13.2982063 7.58690583,13.5 C7.50618834,13.7623318 7.56672646,14.0650224 7.70798206,14.3273543 L9.12053812,16.7690583 L9.20125561,16.9103139 L8.45461883,16.9103139 C7.86941704,16.9103139 7.42547085,17.2533632 7.42547085,17.6973094 C7.42547085,18.1412556 7.88959641,18.4843049 8.45461883,18.4843049 L9.7864574,18.4843049 L9.7864574,19.1300448 L8.45461883,19.1300448 C7.86941704,19.1300448 7.42547085,19.4730942 7.42547085,19.9372197 C7.42547085,20.3609865 7.8290583,20.6838565 8.39408072,20.7242152 L9.80663677,20.7242152 L9.80663677,21.5717489 C9.80663677,22.1367713 10.2102242,22.6008969 10.7147085,22.6008969 C11.2191928,22.6008969 11.6227803,22.1569507 11.6227803,21.5919283 L11.6227803,20.7040359 L13.0756951,20.7040359 C13.5801794,20.6233184 13.9030493,20.3206278 13.9030493,19.9372197 C13.88287,19.4932735 13.4389238,19.1502242 12.853722,19.1502242 Z" id="路径" fill="#447FFF"></path>
                    </g>
                </g>
            </g>
        </g>
    </g>
</svg>