<?xml version="1.0" encoding="UTF-8"?>
<svg width="20px" height="20px" viewBox="0 0 20 20" version="1.1" xmlns="http://www.w3.org/2000/svg" xmlns:xlink="http://www.w3.org/1999/xlink">
    <title>ico_time</title>
    <g id="页面-1" stroke="none" stroke-width="1" fill="none" fill-rule="evenodd">
        <g id="2-1转卖" transform="translate(-304.000000, -463.000000)" fill-rule="nonzero">
            <g id="认养" transform="translate(30.000000, 288.000000)">
                <g id="时间" transform="translate(274.000000, 175.000000)">
                    <g id="编组-3">
                        <rect id="矩形" fill="#000000" opacity="0" x="0" y="0" width="20" height="20"></rect>
                        <path d="M3.58432303,0.2 C4.44307293,0.2 5.22872856,0.591104573 5.76044506,1.22836976 C7.03195975,0.574614086 8.47395592,0.205744146 10.0021143,0.205744146 C11.5304163,0.205744146 12.9725321,0.574709822 14.2442622,1.22839369 C14.7764095,0.591224243 15.5627832,0.200406877 16.421916,0.200406877 C18.0140019,0.200406877 19.2909496,1.52732865 19.2909496,3.14811138 C19.2909496,4.01138479 18.9257895,4.80848085 18.3227259,5.3566639 C18.9445297,6.60352663 19.2942764,8.00986122 19.2942764,9.4979063 C19.2942764,12.5682483 17.8051304,15.2908062 15.5096737,16.9826967 L16.4679888,18.6554879 C16.6778895,19.0217969 16.5510396,19.4888678 16.1847306,19.6987446 C15.8220835,19.9064912 15.3606849,19.7842605 15.1478643,19.4263763 L15.1414979,19.4154624 L14.2079544,17.7859917 C12.9451038,18.4280676 11.5158644,18.7900685 10.0021143,18.7900685 C8.47082057,18.7900685 7.02602413,18.4196667 5.75247505,17.7635416 L4.81199074,19.3880341 C4.60046254,19.7533858 4.13281722,19.8781055 3.76746557,19.6665534 C3.40575188,19.4571553 3.27993114,18.996762 3.48267557,18.6330618 L3.48894627,18.6220522 L4.45492023,16.9533776 C2.18203327,15.2594288 0.71,12.5505851 0.71,9.4979063 C0.71,8.02453273 1.05287768,6.63124214 1.66328898,5.39352217 L1.68267547,5.35441411 C1.08155054,4.80620713 0.717778532,4.00999662 0.717778532,3.14794384 C0.717778532,1.52728078 1.99336199,0.2 3.58434696,0.2 L3.58432303,0.2 Z M10.0021143,1.92563734 C8.16590213,1.92563734 6.48238853,2.57920154 5.1714307,3.66635306 L3.86784453,5.05739387 C2.96321326,6.30490281 2.42984532,7.83909254 2.42984532,9.4979063 C2.42984532,13.6799561 5.82008844,17.0701753 10.0021143,17.0701753 C14.1841401,17.0701753 17.5743833,13.6799321 17.5743833,9.4979063 C17.5743833,7.79170333 17.0100687,6.21728065 16.0579286,4.95115109 L14.8279872,3.66238003 C13.5177234,2.57759796 11.8360527,1.92563734 10.0021143,1.92563734 Z M10.0021143,4.88765434 C10.4242851,4.88765434 10.7665166,5.22990973 10.7665166,5.65205663 L10.7665166,9.4979063 L13.9196222,9.4979063 C14.341793,9.4979063 14.6840245,9.8401617 14.6840245,10.2623086 C14.6840245,10.6844555 14.3417691,11.026687 13.9196222,11.026687 L10.217089,11.026687 C9.67618184,11.026687 9.237712,10.5882171 9.237712,10.04731 L9.237712,5.65205663 C9.237712,5.2298858 9.57996739,4.88765434 10.0021143,4.88765434 L10.0021143,4.88765434 Z M16.421916,1.92027614 C16.1634533,1.92027614 15.9188484,2.0128287 15.7219439,2.17435888 C16.3397705,2.65755763 16.8943081,3.21661436 17.3724765,3.83834238 L17.3722372,3.83850992 C17.498369,3.64052834 17.5710564,3.40219413 17.5710564,3.14808745 C17.5710564,2.4627629 17.0490332,1.92027614 16.421916,1.92027614 L16.421916,1.92027614 Z M3.58432303,1.91986926 C2.95883335,1.91986926 2.43764779,2.46221242 2.43764779,3.14791991 C2.43764779,3.40090169 2.50947355,3.63815888 2.63421727,3.83558998 L2.63400186,3.83539851 C3.11178877,3.21469057 3.66570159,2.65649993 4.28271551,2.173952 C4.0862657,2.01246969 3.84218734,1.91986926 3.58432303,1.91986926 L3.58432303,1.91986926 Z" id="形状" fill="#979797"></path>
                    </g>
                </g>
            </g>
        </g>
    </g>
</svg>