<?xml version="1.0" encoding="UTF-8"?>
<svg width="46px" height="46px" viewBox="0 0 46 46" version="1.1" xmlns="http://www.w3.org/2000/svg" xmlns:xlink="http://www.w3.org/1999/xlink">
    <title>ico_zhi</title>
    <g id="页面-1" stroke="none" stroke-width="1" fill="none" fill-rule="evenodd">
        <g id="3-2提现" transform="translate(-465.000000, -642.000000)" fill-rule="nonzero">
            <g id="编组" transform="translate(30.000000, 505.000000)">
                <g id="支付宝支付" transform="translate(435.000000, 137.000000)">
                    <g id="编组-3">
                        <rect id="矩形" fill="#000000" opacity="0" x="-2.62900812e-13" y="3.55271368e-15" width="45.9977091" height="46"></rect>
                        <path d="M46,31.491582 L46,8.8435 C45.9974711,3.95952318 42.0383836,0.00126394342 37.1546495,3.55271368e-15 L8.84305957,3.55271368e-15 C3.96022013,0.00252807894 0.00252795304,3.96041736 0,8.8435 L0,37.1565 C0.0012646029,42.0401062 3.95969654,45.9987353 8.84305957,46 L37.1546495,46 C41.4357064,45.9969317 45.1014426,42.93133 45.8620069,38.7181641 C43.5161237,37.701582 33.35063,33.3131641 28.0540207,30.7831641 C24.0245945,35.666082 19.8020138,38.596291 13.4405396,38.596291 C7.0790654,38.596291 2.83115001,34.677082 3.34170661,29.8793359 C3.67752583,26.7329629 5.83712725,21.5878359 15.2137423,22.4687539 C20.158496,22.9333359 22.4193014,23.855627 26.4509736,25.1873359 C27.4928397,23.2737539 28.3598786,21.1692539 29.0176817,18.9313359 L11.1429001,18.9313359 L11.1429001,17.1603359 L19.9882506,17.1603359 L19.9882506,13.9771719 L9.19954182,13.9771719 L9.19954182,12.0290449 L19.9860046,12.0290449 L19.9860046,7.4405 C19.9860046,7.4405 20.0825818,6.72291797 20.8760423,6.72291797 L25.29874,6.72291797 L25.29874,12.029 L36.7981673,12.029 L36.7981673,13.979418 L25.29874,13.979418 L25.29874,17.158 L34.6799818,17.158 C33.8708172,20.507883 32.5875576,23.7250787 30.8690446,26.712209 C33.5944089,27.701209 45.9977091,31.491582 45.9977091,31.491582 L46,31.491582 Z M12.7367836,35.560291 C6.01420046,35.560291 4.95167135,31.316791 5.3081536,29.5435 C5.66000912,27.777082 7.60803905,25.4725 11.3453529,25.4725 C15.6392211,25.4725 19.4869474,26.571918 24.1050905,28.821291 C20.862252,33.044082 16.8765774,35.560291 12.7367836,35.560291 Z" id="形状" fill="#009FE8"></path>
                    </g>
                </g>
            </g>
        </g>
    </g>
</svg>