<?xml version="1.0" encoding="UTF-8"?>
<svg width="20px" height="20px" viewBox="0 0 20 20" version="1.1" xmlns="http://www.w3.org/2000/svg" xmlns:xlink="http://www.w3.org/1999/xlink">
    <title>ico_xu_nor</title>
    <g id="页面-1" stroke="none" stroke-width="1" fill="none" fill-rule="evenodd">
        <g id="2-1转卖" transform="translate(-182.000000, -207.000000)" fill-rule="nonzero">
            <g id="排序" transform="translate(182.000000, 207.000000)">
                <g id="编组-4">
                    <rect id="矩形" fill="#000000" opacity="0" x="0" y="0" width="20" height="20"></rect>
                    <path d="M6.14000605,3.7619453 L3.26175528,6.19138287 C2.7584529,6.61620227 2.00607932,6.55257998 1.58125992,6.04927761 C1.15644052,5.54600103 1.22006281,4.79360165 1.72336518,4.36880805 L6.56332906,0.283513932 C7.33866446,-0.370897833 8.52504217,0.180237358 8.52504217,1.19481424 L8.52504217,18.8074819 C8.52504217,19.4660991 7.99114124,20.0000007 7.33252411,20.0000007 C6.67390698,20.0000007 6.14000605,19.4660991 6.14000605,18.8074819 L6.14000605,3.7619453 L6.14000605,3.7619453 Z M16.7395159,13.8086171 C17.2427924,13.3837977 17.9951918,13.44742 18.4199854,13.9507224 C18.8448048,14.453999 18.7811825,15.2063983 18.2779059,15.631192 L13.4379163,19.7164861 C12.6626325,20.3708978 11.4762032,19.8197626 11.4762032,18.8051858 L11.4762032,1.19251806 C11.4762032,0.533900929 12.0101299,0 12.668747,0 C13.3273384,0 13.8612651,0.533900929 13.8612651,1.19251806 L13.8612651,16.2380547 L16.7394901,13.8086171 L16.7395159,13.8086171 Z" id="形状" fill="#CCCCCC"></path>
                </g>
            </g>
        </g>
    </g>
</svg>