<?xml version="1.0" encoding="UTF-8"?>
<svg width="32px" height="32px" viewBox="0 0 32 32" version="1.1" xmlns="http://www.w3.org/2000/svg" xmlns:xlink="http://www.w3.org/1999/xlink">
    <title>login_pho</title>
    <g id="页面-1" stroke="none" stroke-width="1" fill="none" fill-rule="evenodd">
        <g id="4-2注册" transform="translate(-120.000000, -553.000000)" fill-rule="nonzero">
            <g id="手机号码" transform="translate(120.000000, 553.000000)">
                <g id="编组-6">
                    <rect id="矩形" fill="#000000" opacity="0" x="0" y="0" width="32" height="32"></rect>
                    <path d="M24,29.6 L8.00000001,29.6 C6.89579617,29.5991177 6.0008823,28.7042038 6.00000001,27.6 L6.00000001,24.216 L26,24.216 L26,27.6 C26,28.7032 25.1032,29.6 24,29.6 M8.00000001,2.39999997 L24,2.39999997 C25.1032,2.39999997 26,3.2968 26,4.39999997 L26,21.816 L6.00000001,21.816 L6.00000001,4.39999997 C6.00000001,3.2968 6.8968,2.39999997 8.00000001,2.39999997 M24,0 L8,0 C5.57122621,0.00308527858 3.60308528,1.97122621 3.6,4.4 L3.6,27.6 C3.6,30.0256 5.57440001,32 8,32 L24,32 C26.4256,32 28.4,30.0256 28.4,27.6 L28.4,4.4 C28.4,1.97439997 26.4256,0 24,0 M16,25.2 C15.4282322,25.2001429 14.8999731,25.5053095 14.6142129,26.0005464 C14.3284528,26.4957833 14.3286052,27.1058524 14.6146129,27.6009464 C14.9006206,28.0960405 15.4290321,28.4009429 16.0008,28.4008 C16.8846765,28.4005791 17.6010209,27.6838765 17.6008,26.8 C17.600579,25.9161235 16.8838765,25.1997791 16,25.2" id="形状" fill="#666666"></path>
                </g>
            </g>
        </g>
    </g>
</svg>