<?xml version="1.0" encoding="UTF-8"?>
<svg width="48px" height="48px" viewBox="0 0 48 48" version="1.1" xmlns="http://www.w3.org/2000/svg" xmlns:xlink="http://www.w3.org/1999/xlink">
    <title>pes_ico_fu</title>
    <g id="页面-1" stroke="none" stroke-width="1" fill="none" fill-rule="evenodd">
        <g id="6-1我的" transform="translate(-268.000000, -1175.000000)" fill-rule="nonzero">
            <g id="编组-2" transform="translate(30.000000, 1057.000000)">
                <g id="待付款" transform="translate(238.000000, 118.000000)">
                    <g id="编组-4">
                        <rect id="矩形" fill="#000000" opacity="0" x="0" y="0" width="48" height="48"></rect>
                        <path d="M48,42.489824 C48,43.175408 47.8900336,43.806341 47.6434094,44.3823209 C47.4238993,44.9583613 47.094604,45.4793882 46.6558857,45.918348 C46.2444629,46.3573077 45.7506105,46.713838 45.1745701,46.9604623 C44.5985902,47.2074488 43.8580532,47.399422 43.1724691,47.399422 L6.00684648,47.399422 C5.34843702,47.399422 3.67545017,47.2074488 3.07193333,46.9604623 C2.46847688,46.713838 1.94738954,46.3573077 1.48101366,45.918348 C1.01487933,45.4793882 0.65834907,44.9583613 0.383946376,44.3823209 C0.109604069,43.806341 0,43.175408 0,42.489824 L0,15.8841156 C0,14.5401221 0.466375882,13.3881622 1.39894648,12.4555916 C2.33139631,11.5227794 3.4559401,11.4132358 4.79999396,11.4132358 L43.200006,11.4132358 C44.5439995,11.4132358 45.6684829,11.5227794 46.6010535,12.4555916 C47.5336241,13.3881622 48,14.5401221 48,15.8841156 L48,23.399573 L35.9861863,23.399573 C34.6421324,23.399573 33.5175886,23.5915462 32.5850784,24.5241168 C31.6526286,25.4565666 31.1861923,26.5811104 31.1861923,27.9251643 C31.2136688,28.8577349 31.405642,29.6531041 31.7621723,30.3664666 C32.0365749,30.9698626 32.5027093,31.5184265 33.1611187,32.0120373 C33.8192263,32.5058897 34.7520384,32.972024 35.9861863,32.972024 L48,32.972024 L48,42.489824 L48,42.489824 Z M40.7861198,8.99965149 L16.7862708,8.99965149 C18.6788281,8.01218828 20.4891975,6.61324179 22.1896608,5.7081477 C23.6707349,4.94019456 25.124574,4.14476492 26.5781715,3.34927489 C28.0317691,2.58126136 29.1565544,1.9503284 29.9517425,1.53890553 C31.1861319,0.853261119 32.2832596,0.551381922 33.2432463,0.606334927 C34.203233,0.661227543 35.0261995,0.825784617 35.7120251,1.10018731 C36.4800386,1.48413369 37.1656227,2.00522102 37.7141261,2.63615398 L40.7861198,8.99965149 L40.7861198,8.99965149 Z M33.6272531,27.9251039 C33.6272531,27.2394595 33.8467028,26.690956 34.3130786,26.2245197 C34.779213,25.7583854 35.327958,25.5389357 36.0136628,25.5389357 C36.6992468,25.5389357 37.2479918,25.7583854 37.7141261,26.2245197 C38.1805624,26.6908956 38.3999517,27.266936 38.3999517,27.9251039 C38.3999517,28.6109294 38.180502,29.1869094 37.7141261,29.6530437 C37.2479918,30.1194196 36.6992468,30.3664062 36.0136628,30.3664062 C35.3280184,30.3664062 34.7792734,30.1194196 34.3130786,29.6530437 C33.8466424,29.1869094 33.6272531,28.6109898 33.6272531,27.9251039 L33.6272531,27.9251039 Z" id="形状" fill="#808080"></path>
                    </g>
                </g>
            </g>
        </g>
    </g>
</svg>